<?xml version="1.0" encoding="utf-8"?>
<!-- Generator: Adobe Illustrator 18.1.1, SVG Export Plug-In . SVG Version: 6.00 Build 0)  -->
<svg version="1.1" id="Layer_1" xmlns="http://www.w3.org/2000/svg" xmlns:xlink="http://www.w3.org/1999/xlink" x="0px" y="0px"
	 viewBox="0 0 377 211" enable-background="new 0 0 377 211" xml:space="preserve">
<polygon fill="#DD3A4A" stroke="#DD3A4A" stroke-width="1.757" stroke-miterlimit="10" points="205.8,60.2 260.3,48.2 222.4,87.5 
	260.2,127.4 208.2,114 192.3,167.3 175.9,113.8 123.8,125.7 159.3,86.1 122.4,47.3 175.5,60.4 191.4,8.2 "/>
<path d="M137.9,199.8H116V169h-7.6v-28.7h-4.2v-7.9h-9.3v8.4h-4.3v28.4h-4.2v9.2H6.5c-1.1,0-2.1-0.9-2.1-2.1c0-1.1,0.9-2.1,2.1-2.1
	h75.7V165h4.2v-28.4h4.3v-8.4h17.5v7.9h4.2v28.7h7.6v30.8h13.6v-53.6h5.5V97.3h3.4v-30H167V96h9.7v44.4h4.6v52.4h17.1l8.5-5.9h15.4
	l2.6,2.6v-45.7h6.8v-5.5h21.9v4.6h6.3v22.4H284v11h9.4v-33.8l13.6-3.4h34.8v25.8h33c1.1,0,2.1,0.9,2.1,2.1s-0.9,2.1-2.1,2.1h-37.1
	v-25.8h-30.2l-10,2.5v34.7h-17.7v-11h-24.1V147h-6.3v-4.6h-13.6v5.5h-6.8v51.5l-8.4-8.4h-12.3l-8.5,5.9h-22.6v-52.4h-4.6v-44.4h-9.7
	V71.4h-16.1v30h-3.4v44.8h-5.5L137.9,199.8L137.9,199.8z"/>
<polygon fill="#FFFFFF" points="138,200 138,146 143,146 143,101 146,101 146,71 163,71 163,100 173,100 173,145 177,145 177,197 
	"/>
<rect id="_x3C_Slice_x3E_" fill="none" width="377" height="211"/>
</svg>
